<?xml version="1.0" encoding="utf-8"?>
<!-- Generator: Adobe Illustrator 24.0.0, SVG Export Plug-In . SVG Version: 6.00 Build 0)  -->
<svg version="1.1" id="Calque_1" xmlns="http://www.w3.org/2000/svg" xmlns:xlink="http://www.w3.org/1999/xlink" x="0px" y="0px"
	 viewBox="0 0 11.9 16" style="enable-background:new 0 0 11.9 16;" xml:space="preserve">
<style type="text/css">
	.st0{clip-path:url(#SVGID_2_);}
	.st1{fill:#1A79DB;}
</style>
<g>
	<defs>
		<rect id="SVGID_1_" width="11.9" height="16"/>
	</defs>
	<clipPath id="SVGID_2_">
		<use xlink:href="#SVGID_1_"  style="overflow:visible;"/>
	</clipPath>
	<g class="st0">
		<path class="st1" d="M10.4,2H7.9v0c0-1.1-0.9-2-2-2C4.8,0,4,0.9,4,2v0H1.5C0.7,2,0,2.7,0,3.5v11C0,15.3,0.7,16,1.5,16h8.9
			c0.8,0,1.5-0.7,1.5-1.5v-11C11.9,2.7,11.2,2,10.4,2z M5.9,1.3c0.4,0,0.7,0.3,0.7,0.7S6.4,2.7,5.9,2.7S5.2,2.4,5.2,2
			C5.2,1.6,5.5,1.3,5.9,1.3z M10.4,14.2c0,0.2-0.1,0.3-0.3,0.3H1.8c-0.2,0-0.3-0.1-0.3-0.3V3.8c0-0.2,0.1-0.3,0.3-0.3H3v1.1
			C3,4.8,3.1,5,3.4,5h5.2c0.2,0,0.4-0.2,0.4-0.4V3.5h1.2c0.2,0,0.3,0.1,0.3,0.3L10.4,14.2L10.4,14.2z"/>
		<path class="st1" d="M7.4,9.9c0.8-0.8,0.8-2.1,0-2.8c-0.8-0.8-2-0.8-2.8,0c-0.8,0.8-0.8,2.1,0,2.8C5.3,10.7,6.6,10.7,7.4,9.9z"/>
		<path class="st1" d="M7.7,11H6.9c-0.3,0.1-0.6,0.2-1,0.2c-0.4,0-0.7-0.1-1-0.2H4.2c-1,0-1.7,0.7-1.7,1.7v0.2
			c0,0.3,0.3,0.6,0.7,0.6h5.7c0.4,0,0.7-0.3,0.7-0.6v-0.2C9.4,11.8,8.6,11,7.7,11z"/>
	</g>
</g>
</svg>
